<svg xmlns="http://www.w3.org/2000/svg" viewBox="0 0 50 310"><defs><style>.cls-1{fill:#f4b900;}</style></defs><title>Column</title><g id="Capa_2" data-name="Capa 2"><g id="svg3204"><path id="rect2987" class="cls-1" d="M0,0V310H50V0ZM25,10A20,20,0,1,1,5,30,20,20,0,0,1,25,10Zm0,50A20,20,0,1,1,5,80,20,20,0,0,1,25,60Zm0,50A20,20,0,1,1,5,130,20,20,0,0,1,25,110Zm0,50A20,20,0,1,1,5,180,20,20,0,0,1,25,160Zm0,50A20,20,0,1,1,5,230,20,20,0,0,1,25,210Zm0,50A20,20,0,1,1,5,280,20,20,0,0,1,25,260Z"/></g></g></svg>